# xmcd
#
# Track frame offsets:
#	150
#	15985
#	29680
#	43175
#	60317
#	77407
#	91220
#	110212
#	126740
#	140115
#	156715
#	173895
#	189147
#	201247
#
# Disc length: 2882 seconds
#
# Revision: 3
# Processed by: cddbd v1.5.2PL0 Copyright (c) Steve Scherf et al.
# Submitted via: EasyCDDAExtractor 16.0.6.1
#
DISCID=c70b400e
DTITLE=CMT's - Picking My Guitar
DYEAR=1994
DGENRE=Country
TTITLE0=Picking
TTITLE1=A Better Man
TTITLE2=Get Rhythm
TTITLE3=That's All Right (You Win Again)
TTITLE4=I Sang Dixie
TTITLE5=A Better Class Losers
TTITLE6=Mama's Don't Let Babies Grow Up To Be Cowboys
TTITLE7=Chattahoochee
TTITLE8=Crying For Another
TTITLE9=Turn It On, Turn It Up, Turn Me Loose
TTITLE10=My Baby And Me
TTITLE11=Brother Jukebox
TTITLE12=Highway 40 Blues
TTITLE13=The Showtime Is Over
EXTD=
EXTT0=
EXTT1=
EXTT2=
EXTT3=
EXTT4=
EXTT5=
EXTT6=
EXTT7=
EXTT8=
EXTT9=
EXTT10=
EXTT11=
EXTT12=
EXTT13=
PLAYORDER=
